<svg xmlns="http://www.w3.org/2000/svg" xmlns:xlink="http://www.w3.org/1999/xlink" viewBox="0 0 1080 1080" width="1080" height="1080" preserveAspectRatio="xMidYMid meet" style="width: 100%; height: 100%; transform: translate3d(0px, 0px, 0px); content-visibility: visible;"><defs><text font-family="Helvetica Rounded LT Std" font-style="normal" font-weight="700" style="font-size: 100px; font-family: &quot;Helvetica Rounded LT Std&quot;;">Z</text><clipPath id="__lottie_element_61"><rect width="1080" height="1080" x="0" y="0"></rect></clipPath></defs><g clip-path="url(#__lottie_element_61)"><g transform="matrix(0.269488126039505,0.01661774143576622,-0.01661774143576622,0.269488126039505,35.26716613769531,-15.33648681640625)" opacity="1" style="display: block;"><g opacity="1" transform="matrix(1,0,0,1,858.9719848632812,1905.3929443359375)"><path fill="rgb(96,83,123)" fill-opacity="1" d=" M341.9309997558594,-144.5800018310547 C16.959999084472656,-345.76300048828125 -341.9309997558594,112.37799835205078 94.49700164794922,345.76300048828125"></path></g><g opacity="1" transform="matrix(1,0,0,1,976.1640014648438,1890.9150390625)"><path fill="rgb(255,255,255)" fill-opacity="1" d=" M-205.4219970703125,179.89700317382812 C-250.16900634765625,-22.886999130249023 -17.13599967956543,-217.61500549316406 210.84500122070312,-102.55500030517578 C210.84500122070312,-102.55500030517578 224.73899841308594,-130.10299682617188 224.73899841308594,-130.10299682617188 C-27.607999801635742,-286.3009948730469 -300.3450012207031,-45.05799865722656 -205.4219970703125,179.89700317382812z"></path></g><g opacity="1" transform="matrix(1,0,0,1,976.7540283203125,1972.2449951171875)"><path fill="rgb(0,0,114)" fill-opacity="1" d=" M-23.29800033569336,295.1610107421875 C-25.884000778198242,295.1610107421875 -28.506000518798828,294.5429992675781 -30.94499969482422,293.239990234375 C-165.47300720214844,221.2989959716797 -240.26800537109375,119.84600067138672 -241.552001953125,7.576000213623047 C-242.68499755859375,-91.36199951171875 -185.5780029296875,-185.46200561523438 -92.51399993896484,-238.0030059814453 C8.73799991607666,-295.1610107421875 127.2770004272461,-290.510009765625 232.6999969482422,-225.24899291992188 C240.32899475097656,-220.52499389648438 242.68600463867188,-210.50999450683594 237.96400451660156,-202.88099670410156 C233.23800659179688,-195.24899291992188 223.2220001220703,-192.9010009765625 215.59500122070312,-197.61700439453125 C120.5530014038086,-256.4580078125 14.074000358581543,-260.86199951171875 -76.53900146484375,-209.7050018310547 C-159.2779998779297,-162.9929962158203 -210.05599975585938,-79.88099670410156 -209.05999755859375,7.202000141143799 C-207.91700744628906,107.08200073242188 -139.21800231933594,198.48599243164062 -15.621999740600586,264.5820007324219 C-7.706999778747559,268.8160095214844 -4.724999904632568,278.6600036621094 -8.956000328063965,286.5719909667969 C-11.883000373840332,292.0459899902344 -17.4950008392334,295.1610107421875 -23.29800033569336,295.1610107421875z"></path></g></g><g transform="matrix(0.269488126039505,-0.01661774143576622,0.01661774143576622,0.269488126039505,-29.2724609375,35.32659912109375)" opacity="1" style="display: block;"><g opacity="1" transform="matrix(1,0,0,1,2124.94189453125,1588.3699951171875)"><path fill="rgb(96,83,123)" fill-opacity="1" d=" M-352.60699462890625,37.779998779296875 C-157.82400512695312,-345.614013671875 352.60699462890625,-20.86199951171875 80.02400207519531,345.6130065917969"></path></g><g opacity="1" transform="matrix(1,0,0,1,2024.18798828125,1556.4100341796875)"><path fill="rgb(255,255,255)" fill-opacity="1" d=" M-251.86000061035156,69.72799682617188 C-251.86000061035156,69.72799682617188 -228.4969940185547,86.3479995727539 -228.4969940185547,86.3479995727539 C-90.91500091552734,-151.66400146484375 177.7969970703125,-80.37300109863281 251.85899353027344,102.62100219726562 C200.41000366210938,-112.74299621582031 -109.72599792480469,-209.9980010986328 -251.86000061035156,69.72799682617188z"></path></g><g opacity="1" transform="matrix(1,0,0,1,2038.3690185546875,1693.8900146484375)"><path fill="rgb(0,0,114)" fill-opacity="1" d=" M166.58599853515625,256.343994140625 C163.21400451660156,256.343994140625 159.81399536132812,255.2969970703125 156.9010009765625,253.13099670410156 C149.7010040283203,247.77499389648438 148.2050018310547,237.5959930419922 153.56100463867188,230.39700317382812 C260.93701171875,86.03600311279297 230.3260040283203,-28.683000564575195 202.5240020751953,-84.21800231933594 C160.19200134277344,-168.76800537109375 73.33399963378906,-223.5749969482422 -18.76099967956543,-223.8459930419922 C-18.989999771118164,-223.8489990234375 -19.23699951171875,-223.8489990234375 -19.465999603271484,-223.8489990234375 C-115.58699798583984,-223.8489990234375 -197.9770050048828,-165.8260040283203 -251.5489959716797,-60.380001068115234 C-255.61399841308594,-52.38199996948242 -265.3919982910156,-49.1879997253418 -273.3919982910156,-53.25299835205078 C-281.39300537109375,-57.316001892089844 -284.5830078125,-67.0979995727539 -280.51800537109375,-75.09600067138672 C-221.98300170898438,-190.3159942626953 -126.84700012207031,-256.343994140625 -19.437000274658203,-256.343994140625 C-19.176000595092773,-256.343994140625 -18.927000045776367,-256.343994140625 -18.663000106811523,-256.3420104980469 C85.58300018310547,-256.03399658203125 183.80999755859375,-194.18099975585938 231.58099365234375,-98.76300048828125 C284.5840148925781,7.105999946594238 265.6510009765625,134.1490020751953 179.63499450683594,249.79100036621094 C176.44700622558594,254.0780029296875 171.5469970703125,256.3420104980469 166.58599853515625,256.343994140625z"></path></g><g opacity="1" transform="matrix(1,0,0,1,2179.94189453125,1756.2750244140625)"><path fill="rgb(0,0,114)" fill-opacity="1" d=" M-103.41699981689453,86.31800079345703 C-103.41699981689453,86.31800079345703 25.020999908447266,177.697998046875 25.020999908447266,177.697998046875 C125.697998046875,42.36800003051758 119.56300354003906,-87.2969970703125 61.986000061035156,-177.6999969482422 C67.6780014038086,-74.36699676513672 15.008000373840332,34.20199966430664 -103.41699981689453,86.31800079345703z"></path></g></g><g transform="matrix(0.26883378624916077,-0.025068087503314018,0.025068087503314018,0.26883378624916077,-49.5631103515625,76.99002075195312)" opacity="1" style="display: block;"><g opacity="1" transform="matrix(1,0,0,1,3045.969970703125,2090.9130859375)"><path fill="rgb(96,83,123)" fill-opacity="1" d=" M9.96399974822998,118.35600280761719 C9.96399974822998,118.35600280761719 -49.53300094604492,26.56100082397461 -49.53300094604492,26.56100082397461 C-49.53300094604492,26.56100082397461 -116.16000366210938,-76.18900299072266 -116.16000366210938,-76.18900299072266 C-51.138999938964844,-118.35600280761719 7.414000034332275,-116.41999816894531 45.61399841308594,-91.7239990234375 C107.99199676513672,-51.44599914550781 116.16100311279297,49.55699920654297 9.96399974822998,118.35600280761719z"></path></g><g opacity="1" transform="matrix(1,0,0,1,3063.330078125,2104.22900390625)"><path fill="rgb(66,59,120)" fill-opacity="1" d=" M-7.395999908447266,105.04000091552734 C-7.395999908447266,105.04000091552734 -66.89299774169922,13.244999885559082 -66.89299774169922,13.244999885559082 C-66.89299774169922,13.244999885559082 -74.06999969482422,-19.856000900268555 -74.06999969482422,-19.856000900268555 C-23.261999130249023,17.68400001525879 42.84600067138672,-53.99599838256836 28.253999710083008,-105.04000091552734 C90.63200378417969,-64.76200103759766 98.8010025024414,36.24100112915039 -7.395999908447266,105.04000091552734z"></path></g><g opacity="1" transform="matrix(1,0,0,1,3033.56494140625,2031.72802734375)"><path fill="rgb(255,255,255)" fill-opacity="1" d=" M63.02000045776367,-2.5399999618530273 C82.49299621582031,10.034000396728516 96.67900085449219,28.525999069213867 103.75599670410156,50.108001708984375 C103.07099914550781,15.923999786376953 86.04499816894531,-14.442999839782715 58.02000045776367,-32.540000915527344 C19.819000244140625,-57.236000061035156 -38.73400115966797,-59.172000885009766 -103.75599670410156,-17.003999710083008 C-103.75599670410156,-17.003999710083008 -88.4020004272461,6.673999786376953 -88.4020004272461,6.673999786376953 C-27.545000076293945,-28.836999893188477 26.860000610351562,-25.916000366210938 63.02000045776367,-2.5399999618530273z"></path></g><g opacity="1" transform="matrix(1,0,0,1,3035.01806640625,2083.077880859375)"><path fill="rgb(0,0,114)" fill-opacity="1" d=" M20.917999267578125,142.44400024414062 C15.595999717712402,142.44400024414062 10.380999565124512,139.83200073242188 7.26800012588501,135.03199768066406 C2.388000011444092,127.5 4.535999774932861,117.43900299072266 12.0649995803833,112.55899810791016 C90.9229965209961,61.448001861572266 98.73500061035156,-5.192999839782715 72.62200164794922,-45.48099899291992 C58.733001708984375,-66.90899658203125 36.02799987792969,-80.68800354003906 8.684000015258789,-84.28500366210938 C-23.64699935913086,-88.55500030517578 -59.987998962402344,-78.322998046875 -96.37000274658203,-54.73899841308594 C-103.89900207519531,-49.86800003051758 -113.95999908447266,-52.00699996948242 -118.84300231933594,-59.5359992980957 C-123.7229995727539,-67.06800079345703 -121.57499694824219,-77.12899780273438 -114.04499816894531,-82.00900268554688 C-20.79800033569336,-142.44400024414062 64.16500091552734,-118.2760009765625 99.88999938964844,-63.15700149536133 C119.04100036621094,-33.611000061035156 123.7229995727539,2.319000005722046 113.0739974975586,38.01499938964844 C101.51100158691406,76.77999877929688 72.69499969482422,111.98699951171875 29.740999221801758,139.82899475097656 C27.011999130249023,141.5970001220703 23.94499969482422,142.44400024414062 20.917999267578125,142.44400024414062z"></path></g></g><g transform="matrix(0.27000001072883606,0,0,0.27000001072883606,0,0)" opacity="1" style="display: block;"><g opacity="1" transform="matrix(1,0,0,1,2055.47998046875,2846.237060546875)"><path fill="rgb(9,162,227)" fill-opacity="1" d=" M1505.47998046875,0 C1505.47998046875,111.1729965209961 831.4539794921875,201.2969970703125 0,201.2969970703125 C-831.4539794921875,201.2969970703125 -1505.47998046875,111.1729965209961 -1505.47998046875,0 C-1505.47998046875,-111.1729965209961 -831.4539794921875,-201.2969970703125 0,-201.2969970703125 C831.4539794921875,-201.2969970703125 1505.47998046875,-111.1729965209961 1505.47998046875,0z"></path></g><g opacity="1" transform="matrix(1,0,0,1,1064.241943359375,2691.81201171875)"><path fill="rgb(96,83,123)" fill-opacity="1" d=" M446.3699951171875,148.56199645996094 C446.3699951171875,148.56199645996094 -112.37000274658203,148.56199645996094 -112.37000274658203,148.56199645996094 C-446.3699951171875,148.56199645996094 -446.3699951171875,-148.56199645996094 -112.37000274658203,-148.56199645996094 C-112.37000274658203,-148.56199645996094 240.83799743652344,-148.56199645996094 240.83799743652344,-148.56199645996094"></path></g><g opacity="1" transform="matrix(1,0,0,1,1106.3499755859375,2771.9619140625)"><path fill="rgb(66,59,120)" fill-opacity="1" d=" M404.2720031738281,68.39700317382812 C404.2720031738281,68.39700317382812 -154.47900390625,68.39700317382812 -154.47900390625,68.39700317382812 C-312.6650085449219,68.39700317382812 -395.9129943847656,1.7710000276565552 -404.27099609375,-68.39700317382812 C-362.81201171875,-36.61899948120117 -296.89300537109375,-14.850000381469727 -206.4199981689453,-14.850000381469727 C-206.4199981689453,-14.850000381469727 346.66400146484375,-14.850000381469727 346.66400146484375,-14.850000381469727 C346.66400146484375,-14.850000381469727 404.2720031738281,68.39700317382812 404.2720031738281,68.39700317382812z"></path></g><g opacity="1" transform="matrix(1,0,0,1,1106,2691.806884765625)"><path fill="rgb(255,255,255)" fill-opacity="1" d=" M404.62298583984375,148.55299377441406 C404.62298583984375,148.55299377441406 400.37298583984375,148.55299377441406 400.37298583984375,148.55299377441406 C400.37298583984375,148.55299377441406 217.96299743652344,-115.16899871826172 217.96299743652344,-115.16899871826172 C217.96299743652344,-115.16899871826172 -135.24000549316406,-115.16899871826172 -135.24000549316406,-115.16899871826172 C-328.4150085449219,-115.16899871826172 -409.8689880371094,-15.723999977111816 -379.60198974609375,68.09100341796875 C-449.06201171875,-19.927000045776367 -373.88800048828125,-148.55299377441406 -154.1280059814453,-148.55299377441406 C-154.1280059814453,-148.55299377441406 199.0760040283203,-148.55299377441406 199.0760040283203,-148.55299377441406 C199.0760040283203,-148.55299377441406 404.62298583984375,148.55299377441406 404.62298583984375,148.55299377441406z"></path></g><g opacity="1" transform="matrix(1,0,0,1,2516.780029296875,2353.784912109375)"><path fill="rgb(255,255,255)" fill-opacity="1" d=" M611.4000244140625,525.6259765625 C603.7979736328125,525.8619995117188 596.0059814453125,525.9569702148438 588.073974609375,525.9569702148438 C588.073974609375,525.9569702148438 -594.35400390625,525.9569702148438 -594.35400390625,525.9569702148438 C-604.7429809570312,525.6259765625 -614.7529907226562,525.0120239257812 -624.385986328125,524.2570190429688 C-970.7899780273438,496.1610107421875 -821.2449951171875,196.45700073242188 -195.53700256347656,218.03700256347656 C-195.53700256347656,218.03700256347656 -766.4229736328125,-170.25100708007812 -766.4229736328125,-170.25100708007812 C-729.4030151367188,-208.30999755859375 -690.6829833984375,-243.1580047607422 -650.68798828125,-274.74798583984375 C-510.0679931640625,-385.8559875488281 -354.10101318359375,-456.73199462890625 -201.58099365234375,-487.37799072265625 C-9.869000434875488,-525.9569702148438 176.27099609375,-500.97698974609375 319.25299072265625,-412.48699951171875 C485.9849853515625,-309.4540100097656 594.0239868164062,-120.1510009765625 583.8709716796875,155.18699645996094 C608.89697265625,158.4929962158203 632.6959838867188,163.35699462890625 655.1259765625,169.4949951171875 C673.9190063476562,174.64199829101562 691.7210083007812,180.68600463867188 708.43701171875,187.48599243164062 C937.073974609375,280.5559997558594 970.7899780273438,515.9459838867188 611.4000244140625,525.6259765625z"></path></g><g opacity="1" transform="matrix(1,0,0,1,2558.430908203125,2353.4580078125)"><path fill="rgb(66,59,120)" fill-opacity="1" d=" M546.4229736328125,528.781982421875 C546.4229736328125,528.781982421875 -636.0059814453125,528.781982421875 -636.0059814453125,528.781982421875 C-645.5490112304688,528.47900390625 -655.4099731445312,527.9229736328125 -666.2329711914062,527.0759887695312 C-783.4520263671875,517.5689697265625 -854.1480102539062,475.00299072265625 -850.7369995117188,415.989013671875 C-847.7780151367188,364.739013671875 -788.3109741210938,311.85101318359375 -691.6630249023438,274.5140075683594 C-612.094970703125,243.77699279785156 -470.44000244140625,208.8209991455078 -245.71499633789062,215.58599853515625 C-245.71499633789062,215.58599853515625 -811.9429931640625,-169.531005859375 -811.9429931640625,-169.531005859375 C-811.9429931640625,-169.531005859375 -809.8660278320312,-171.66700744628906 -809.8660278320312,-171.66700744628906 C-773.344970703125,-209.21400451660156 -734.3259887695312,-244.4459991455078 -693.8889770507812,-276.3840026855469 C-557.6859741210938,-384.0010070800781 -402.0220031738281,-457.697998046875 -243.7259979248047,-489.50201416015625 C-48.53300094604492,-528.781982421875 137.0749969482422,-502.07000732421875 278.9159851074219,-414.2869873046875 C459.22100830078125,-302.8659973144531 553.5960083007812,-101.3550033569336 544.7969970703125,153.33799743652344 C568.47900390625,156.56300354003906 591.7940063476562,161.29400634765625 614.1329956054688,167.41000366210938 C632.676025390625,172.48800659179688 650.7050170898438,178.57200622558594 667.7269897460938,185.49600219726562 C783.2319946289062,232.51499938964844 854.1480102539062,318.99700927734375 840.1849975585938,395.8080139160156 C825.6320190429688,475.8689880371094 727.0850219726562,524.2169799804688 569.8170166015625,528.4520263671875 C569.8170166015625,528.4520263671875 569.8270263671875,528.4520263671875 569.8270263671875,528.4520263671875 C562.6810302734375,528.6749877929688 555.0239868164062,528.781982421875 546.4229736328125,528.781982421875z M-301.2330017089844,219.73899841308594 C-493.3059997558594,219.73899841308594 -617.4539794921875,251.20599365234375 -689.8610229492188,279.177001953125 C-784.6270141601562,315.78900146484375 -842.9030151367188,367.0409851074219 -845.7470092773438,416.2770080566406 C-848.9819946289062,472.2829895019531 -780.0440063476562,512.8270263671875 -665.8350219726562,522.0900268554688 C-655.0980224609375,522.9320068359375 -645.31298828125,523.4869995117188 -635.927978515625,523.781982421875 C-635.927978515625,523.781982421875 546.4229736328125,523.781982421875 546.4229736328125,523.781982421875 C554.9730224609375,523.781982421875 562.5780029296875,523.6749877929688 569.6699829101562,523.4550170898438 C569.6699829101562,523.4550170898438 569.6799926757812,523.4520263671875 569.6799926757812,523.4520263671875 C724.3720092773438,519.2869873046875 821.1740112304688,472.43701171875 835.2659912109375,394.9150085449219 C848.801025390625,320.4540100097656 779.1329956054688,236.2429962158203 665.8419799804688,190.1269989013672 C649.0059814453125,183.2790069580078 631.1640014648438,177.25900268554688 612.8150024414062,172.23399353027344 C589.9849853515625,165.98399353027344 566.1229858398438,161.19200134277344 541.8920288085938,157.99099731445312 C541.8920288085938,157.99099731445312 539.635986328125,157.6929931640625 539.635986328125,157.6929931640625 C539.635986328125,157.6929931640625 539.7219848632812,155.4199981689453 539.7219848632812,155.4199981689453 C549.083984375,-98.45700073242188 455.5270080566406,-299.2720031738281 276.2869873046875,-410.03399658203125 C135.53199768066406,-497.14599609375 -48.79600143432617,-523.6279907226562 -242.73899841308594,-484.5989990234375 C-400.2690124511719,-452.9490051269531 -555.2000122070312,-379.5920104980469 -690.7890014648438,-272.46099853515625 C-730.2880249023438,-241.26199340820312 -768.4329833984375,-206.90699768066406 -804.2020263671875,-170.31500244140625 C-804.2020263671875,-170.31500244140625 -228.6300048828125,221.16000366210938 -228.6300048828125,221.16000366210938 C-228.6300048828125,221.16000366210938 -237.2729949951172,220.86000061035156 -237.2729949951172,220.86000061035156 C-259.37298583984375,220.09800720214844 -280.70599365234375,219.73899841308594 -301.2330017089844,219.73899841308594z"></path></g><g opacity="1" transform="matrix(1,0,0,1,1105.990966796875,2691.81103515625)"><path fill="rgb(0,0,114)" fill-opacity="1" d=" M404.6199951171875,164.8090057373047 C404.6199951171875,164.8090057373047 -154.1199951171875,164.8090057373047 -154.1199951171875,164.8090057373047 C-337.3940124511719,164.8090057373047 -420.8680114746094,79.37799835205078 -420.8680114746094,0 C-420.8680114746094,-79.37699890136719 -337.3940124511719,-164.80999755859375 -154.1199951171875,-164.80999755859375 C-154.1199951171875,-164.80999755859375 199.08999633789062,-164.80999755859375 199.08999633789062,-164.80999755859375 C208.06500244140625,-164.80999755859375 215.33799743652344,-157.53599548339844 215.33799743652344,-148.56199645996094 C215.33799743652344,-139.58700561523438 208.06500244140625,-132.31399536132812 199.08999633789062,-132.31399536132812 C199.08999633789062,-132.31399536132812 -154.1199951171875,-132.31399536132812 -154.1199951171875,-132.31399536132812 C-307.9070129394531,-132.31399536132812 -388.3710021972656,-65.7509994506836 -388.3710021972656,0 C-388.3710021972656,65.75199890136719 -307.9070129394531,132.31399536132812 -154.1199951171875,132.31399536132812 C-154.1199951171875,132.31399536132812 404.6199951171875,132.31399536132812 404.6199951171875,132.31399536132812 C413.5950012207031,132.31399536132812 420.8680114746094,139.58799743652344 420.8680114746094,148.56199645996094 C420.8680114746094,157.53700256347656 413.5950012207031,164.8090057373047 404.6199951171875,164.8090057373047z"></path></g><g opacity="1" transform="matrix(1,0,0,1,2276.360107421875,2335.10888671875)"><path fill="rgb(96,83,123)" fill-opacity="1" d=" M293.3529968261719,168.76300048828125 C271.06500244140625,254.41900634765625 214.63699340820312,390.1289978027344 128.31900024414062,468.93798828125 C128.31900024414062,468.93798828125 -96.39900207519531,356.6969909667969 -96.39900207519531,356.6969909667969 C-96.39900207519531,356.6969909667969 -317.3380126953125,240.6790008544922 -311.0589904785156,191.38099670410156 C-305.62799072265625,148.74200439453125 -379.76300048828125,-161.30299377441406 -410.26800537109375,-256.072998046875 C-384.8630065917969,-276.1409912109375 -358.98699951171875,-294.8869934082031 -332.6860046386719,-312.3110046386719 C-213.40899658203125,-391.45098876953125 -86.1520004272461,-443.5820007324219 38.8380012512207,-468.7030029296875 C40.112998962402344,-468.9389953613281 54.89400100708008,-466.15301513671875 77.13400268554688,-457.7950134277344 C173.5570068359375,-421.5299987792969 410.2690124511719,-280.72100830078125 293.3529968261719,168.76300048828125z"></path></g><g opacity="1" transform="matrix(1,0,0,1,2411.340087890625,2053.35400390625)"><path fill="rgb(255,255,255)" fill-opacity="1" d=" M660.97900390625,204.50399780273438 C552.3740234375,-97.7020034790039 242.09300231933594,-216.3179931640625 -84.33599853515625,-150.63600158691406 C-236.8560028076172,-119.98999786376953 -392.822998046875,-49.112998962402344 -533.4429931640625,61.994998931884766 C-567.4409790039062,88.86299896240234 -600.5419921875,118.04499816894531 -632.416015625,149.63499450683594 C-632.416015625,149.63499450683594 -660.9829711914062,130.17999267578125 -660.9829711914062,130.17999267578125 C-623.9630126953125,92.12100219726562 -585.2429809570312,57.27299880981445 -545.2479858398438,25.683000564575195 C-404.62799072265625,-85.42500305175781 -248.66099548339844,-156.302001953125 -96.14099884033203,-186.94700622558594 C243.0850067138672,-255.17999267578125 564.8400268554688,-124.47599792480469 660.97900390625,204.50399780273438z"></path></g><g opacity="1" transform="matrix(1,0,0,1,2316.8798828125,2286.6298828125)"><path fill="rgb(66,59,120)" fill-opacity="1" d=" M-83.11199951171875,-305.0199890136719 C119.51599884033203,-212.96099853515625 215.62899780273438,-31.50200080871582 219.1909942626953,227.63900756835938 C219.85000610351562,275.56298828125 176.44400024414062,312.16400146484375 129.2449951171875,303.8370056152344 C51.582000732421875,290.1340026855469 -64.47100067138672,275.51800537109375 -162.37399291992188,287.3169860839844 C-326.4110107421875,307.08599853515625 -83.11199951171875,-305.0199890136719 -83.11199951171875,-305.0199890136719z"></path></g><g opacity="1" transform="matrix(1,0,0,1,2428.875,2164.489013671875)"><path fill="rgb(0,0,114)" fill-opacity="1" d=" M671.7849731445312,360.7300109863281 C671.5819702148438,360.7300109863281 671.3800048828125,360.7279968261719 671.1749877929688,360.7200012207031 C662.2069702148438,360.38800048828125 655.2080078125,352.8489990234375 655.5369873046875,343.8819885253906 C663.5670166015625,126.48400115966797 596.7680053710938,-48.823001861572266 462.364013671875,-163.09100341796875 C320.739990234375,-283.4989929199219 111.94100189208984,-326.89898681640625 -110.47100067138672,-282.15301513671875 C-265.8909912109375,-250.9250030517578 -418.81298828125,-178.49899291992188 -552.7100219726562,-72.7030029296875 C-592.510009765625,-41.266998291015625 -630.9180297851562,-6.586999893188477 -666.8699951171875,30.374000549316406 C-673.1270141601562,36.80400085449219 -683.4149780273438,36.95100021362305 -689.8460083007812,30.69300079345703 C-696.2789916992188,24.43600082397461 -696.4210205078125,14.14799976348877 -690.166015625,7.7170000076293945 C-653.22998046875,-30.256000518798828 -613.760009765625,-65.89399719238281 -572.85400390625,-98.2030029296875 C-434.9630126953125,-207.156005859375 -277.2869873046875,-281.7799987792969 -116.87699890136719,-314.010986328125 C115.35199737548828,-360.7300109863281 334.1579895019531,-314.7460021972656 483.4129943847656,-187.8489990234375 C625.6719970703125,-66.90399932861328 696.4210205078125,117.37999725341797 688.0130004882812,345.0830078125 C687.68798828125,353.8450012207031 680.4810180664062,360.7300109863281 671.7849731445312,360.7300109863281z"></path></g><g opacity="1" transform="matrix(1,0,0,1,1635.8289794921875,2233.06005859375)"><path fill="rgb(255,255,255)" fill-opacity="1" d=" M-649.135009765625,286.8210144042969 C-530.4660034179688,657.7470092773438 -194.281005859375,707.1690063476562 164.2259979248047,592.4730224609375 C522.7329711914062,477.77801513671875 767.802978515625,242.3979949951172 649.1339721679688,-128.5279998779297 C530.4650268554688,-499.4549865722656 143.63699340820312,-707.1699829101562 -214.8699951171875,-592.4749755859375 C-573.3759765625,-477.77899169921875 -767.8040161132812,-84.1050033569336 -649.135009765625,286.8210144042969z"></path></g><g opacity="1" transform="matrix(1,0,0,1,1635.0909423828125,2208.593994140625)"><path fill="rgb(0,0,114)" fill-opacity="1" d=" M-151.43099975585938,673.9169921875 C-216.9709930419922,673.9169921875 -277.6910095214844,665.5070190429688 -332.39300537109375,648.6090087890625 C-487.5419921875,600.68701171875 -594.6610107421875,487.4519958496094 -650.7769775390625,312.04901123046875 C-708.3690185546875,132.03199768066406 -694.7559814453125,-58.893001556396484 -612.447021484375,-225.55499267578125 C-530.1220092773438,-392.2449951171875 -388.9360046386719,-514.7109985351562 -214.89300537109375,-570.3900146484375 C144.36000061035156,-685.3330078125 533.35400390625,-476.468994140625 652.2529907226562,-104.82599639892578 C708.3690185546875,70.5770034790039 686.8670043945312,224.96499633789062 588.3469848632812,354.0419921875 C502.4119873046875,466.62701416015625 356.2720031738281,558.3579711914062 165.72500610351562,619.3200073242188 C52.20399856567383,655.6380004882812 -54.8390007019043,673.9169921875 -151.43099975585938,673.9169921875z M-646.0159912109375,310.5260009765625 C-590.4249877929688,484.281005859375 -484.4119873046875,596.4219970703125 -330.9179992675781,643.8319702148438 C-196.5749969482422,685.3330078125 -25.367000579833984,675.208984375 164.2010040283203,614.5590209960938 C353.7690124511719,553.9099731445312 499.06201171875,462.7749938964844 584.3720092773438,351.0069885253906 C681.843017578125,223.3040008544922 703.0780029296875,70.4530029296875 647.4920043945312,-103.302001953125 C529.4310302734375,-472.3210144042969 143.24899291992188,-679.7210083007812 -213.36900329589844,-565.6290283203125 C-386.1090087890625,-510.364990234375 -526.2449951171875,-388.80499267578125 -607.9639892578125,-223.34100341796875 C-689.697998046875,-57.847999572753906 -703.2109985351562,131.74899291992188 -646.0159912109375,310.5260009765625z"></path></g><g opacity="1" transform="matrix(1,0,0,1,1705.781982421875,2279.89501953125)"><path fill="rgb(177,177,212)" fill-opacity="1" d=" M-609.4080200195312,441.95098876953125 C-449.3280029296875,624.7919921875 -184.2790069580078,634.7379760742188 94.29100036621094,545.6170043945312 C452.7799987792969,430.927001953125 697.8489990234375,195.56100463867188 579.18798828125,-175.34100341796875 C517.2030029296875,-369.0889892578125 382.0719909667969,-518.2670288085938 216.0679931640625,-600.3060302734375 C300.67498779296875,-519.791015625 367.239013671875,-416.7959899902344 405.6700134277344,-296.6700134277344 C524.3460083007812,74.2760009765625 279.2760009765625,309.6419982910156 -79.21299743652344,424.3320007324219 C-272.64599609375,486.2170104980469 -459.6029968261719,500.3179931640625 -609.4080200195312,441.95098876953125z"></path></g><g opacity="1" transform="matrix(1,0,0,1,1635.27001953125,2202.053955078125)"><path fill="rgb(0,0,114)" fill-opacity="1" d=" M-151.63400268554688,694.18798828125 C-218.55999755859375,694.18798828125 -280.6400146484375,685.5800170898438 -336.6289978027344,668.2849731445312 C-496.3240051269531,618.958984375 -606.4840087890625,502.7139892578125 -664.0499877929688,322.77899169921875 C-722.7340087890625,139.3470001220703 -708.8480224609375,-55.22800064086914 -624.9509887695312,-225.1020050048828 C-540.9619750976562,-395.1650085449219 -396.885009765625,-520.1190185546875 -219.25999450683594,-576.9450073242188 C147.20700073242188,-694.18798828125 543.9569702148438,-481.3389892578125 665.1699829101562,-102.4749984741211 C722.7340087890625,77.46199798583984 700.5050048828125,236.06300354003906 599.0960083007812,368.9219970703125 C511.4469909667969,483.7560119628906 362.97601318359375,577.1320190429688 169.73699951171875,638.9559936523438 C54.882999420166016,675.698974609375 -53.573001861572266,694.18798828125 -151.63400268554688,694.18798828125z M-633.0980224609375,312.87701416015625 C-578.9600219726562,482.10101318359375 -475.9859924316406,591.22900390625 -327.0379943847656,637.2369995117188 C-195.39100646972656,677.9039916992188 -27.03700065612793,667.7890014648438 159.83299255371094,608.0040283203125 C346.7080078125,548.218994140625 489.6700134277344,458.72698974609375 573.2630004882812,349.2080078125 C667.8480224609375,225.28700256347656 688.3560180664062,76.6520004272461 634.218017578125,-92.5719985961914 C518.4710083007812,-454.3739929199219 140.02099609375,-657.7750244140625 -209.35899353027344,-545.9929809570312 C-378.5169982910156,-491.8760070800781 -515.7630004882812,-372.8039855957031 -595.8159790039062,-210.71200561523438 C-675.9630126953125,-48.433998107910156 -689.2009887695312,137.51300048828125 -633.0980224609375,312.87701416015625z"></path></g><g opacity="1" transform="matrix(1,0,0,1,1378.2440185546875,1590.29296875)"><path fill="rgb(255,255,255)" fill-opacity="1" d=" M132.36900329589844,77.38400268554688 C38.34299850463867,-111.91500091552734 -132.36900329589844,18.44700050354004 -6.556000232696533,111.91400146484375"></path></g><g opacity="1" transform="matrix(1,0,0,1,1415.56103515625,1634.18603515625)"><path fill="rgb(0,0,114)" fill-opacity="1" d=" M-45.3650016784668,70.0270004272461 C-81.45899963378906,43.2130012512207 -97.28900146484375,10.380999565124512 -88.79299926757812,-20.048999786376953 C-81.81999969482422,-45.016998291015625 -59.01300048828125,-62.882999420166016 -30.684999465942383,-65.56400299072266 C16.746999740600586,-70.0270004272461 64.59600067138672,-33.439998626708984 97.28900146484375,32.37799835205078 C97.28900146484375,32.37799835205078 92.81099700927734,34.60499954223633 92.81099700927734,34.60499954223633 C61.077999114990234,-29.288999557495117 15.111000061035156,-64.87799835205078 -30.214000701904297,-60.58599853515625 C-56.4640007019043,-58.099998474121094 -77.56500244140625,-41.6619987487793 -83.97599792480469,-18.702999114990234 C-91.88600158691406,9.621999740600586 -76.7249984741211,40.500999450683594 -42.38199996948242,66.01300048828125 C-42.38199996948242,66.01300048828125 -45.3650016784668,70.0270004272461 -45.3650016784668,70.0270004272461z"></path></g><g opacity="1" transform="matrix(1,0,0,1,1265.8489990234375,1696.56298828125)"><path fill="rgb(255,255,255)" fill-opacity="1" d=" M79.447998046875,-19.466999053955078 C-40.540000915527344,-76.10700225830078 -79.447998046875,76.10700225830078 65.2239990234375,60.77899932861328"></path></g><g opacity="1" transform="matrix(1,0,0,1,1289.04296875,1708.4849853515625)"><path fill="rgb(0,0,114)" fill-opacity="1" d=" M22.884000778198242,52.404998779296875 C-13.005000114440918,52.404998779296875 -39.45500183105469,40.672000885009766 -49.55699920654297,19.594999313354492 C-57.319000244140625,3.4010000228881836 -53.63100051879883,-15.817999839782715 -40.159000396728516,-29.367000579833984 C-18.85300064086914,-50.803001403808594 17.591999053955078,-52.404998779296875 57.319000244140625,-33.650001525878906 C57.319000244140625,-33.650001525878906 55.185001373291016,-29.128000259399414 55.185001373291016,-29.128000259399414 C17.45800018310547,-46.93600082397461 -16.856000900268555,-45.709999084472656 -36.61399841308594,-25.841999053955078 C-48.571998596191406,-13.812999725341797 -51.88399887084961,3.1740000247955322 -45.04800033569336,17.43400001525879 C-34.154998779296875,40.159000396728516 -1.6890000104904175,50.96900177001953 41.76599884033203,46.369998931884766 C41.76599884033203,46.369998931884766 42.29199981689453,51.340999603271484 42.29199981689453,51.340999603271484 C35.566001892089844,52.053001403808594 29.08300018310547,52.404998779296875 22.884000778198242,52.404998779296875z"></path></g><g opacity="1" transform="matrix(1,0,0,1,1267.8370361328125,1829.3790283203125)"><path fill="rgb(255,255,255)" fill-opacity="1" d=" M21.719999313354492,-72.61399841308594 C-71.5979995727539,-5.3520002365112305 29.500999450683594,72.61399841308594 71.5979995727539,-22.6560001373291"></path></g><g opacity="1" transform="matrix(1,0,0,1,1292.7259521484375,1804.1510009765625)"><path fill="rgb(0,0,114)" fill-opacity="1" d=" M-5.718999862670898,49.415000915527344 C-6.677999973297119,49.415000915527344 -7.638000011444092,49.38199996948242 -8.60200023651123,49.316001892089844 C-24.759000778198242,48.19499969482422 -38.04800033569336,37.47700119018555 -42.457000732421875,22.007999420166016 C-48.994998931884766,-0.9290000200271606 -34.85499954223633,-27.6299991607666 -4.631999969482422,-49.415000915527344 C-4.631999969482422,-49.415000915527344 -1.7079999446868896,-45.358001708984375 -1.7079999446868896,-45.358001708984375 C-30.148000717163086,-24.860000610351562 -43.584999084472656,-0.1860000044107437 -37.64799880981445,20.638999938964844 C-33.82400131225586,34.05699920654297 -22.285999298095703,43.354000091552734 -8.255000114440918,44.327999114990234 C12.25,45.70000076293945 31.961999893188477,29.764999389648438 44.41999816894531,1.562000036239624 C44.41999816894531,1.562000036239624 48.994998931884766,3.5829999446868896 48.994998931884766,3.5829999446868896 C36.21200180053711,32.50899887084961 15.923999786376953,49.41299819946289 -5.718999862670898,49.415000915527344z"></path></g><g opacity="1" transform="matrix(1,0,0,1,1416.3590087890625,1634.1669921875)"><path fill="rgb(0,0,114)" fill-opacity="1" d=" M-44.683998107910156,84.28900146484375 C-48.053001403808594,84.28900146484375 -51.44900131225586,83.24500274658203 -54.36199951171875,81.08200073242188 C-94.67400360107422,51.13600158691406 -112.79399871826172,11.954000473022461 -102.83100128173828,-23.725000381469727 C-94.31800079345703,-54.22100067138672 -66.81999969482422,-76.00900268554688 -32.777000427246094,-79.23200225830078 C20.500999450683594,-84.29000091552734 73.47799682617188,-44.83399963378906 108.802001953125,26.281999588012695 C112.79399871826172,34.319000244140625 109.51499938964844,44.06999969482422 101.48100280761719,48.0620002746582 C93.44100189208984,52.05400085449219 83.68800354003906,48.77000045776367 79.70099639892578,40.7400016784668 C50.59700012207031,-17.854000091552734 9.684000015258789,-50.55500030517578 -29.715999603271484,-46.880001068115234 C-50.25299835205078,-44.9370002746582 -66.66600036621094,-32.41699981689453 -71.53199768066406,-14.987000465393066 C-77.8290023803711,7.557000160217285 -64.50599670410156,33.0629997253418 -34.981998443603516,54.99700164794922 C-27.780000686645508,60.3489990234375 -26.277999877929688,70.5250015258789 -31.6299991607666,77.7300033569336 C-34.81800079345703,82.02200317382812 -39.72100067138672,84.28900146484375 -44.683998107910156,84.28900146484375z"></path></g><g opacity="1" transform="matrix(1,0,0,1,1290.2979736328125,1707.8800048828125)"><path fill="rgb(0,0,114)" fill-opacity="1" d=" M20.66900062561035,66.82599639892578 C-36.9379997253418,66.82599639892578 -56.98699951171875,39.12300109863281 -63.209999084472656,26.142000198364258 C-73.52100372314453,4.633999824523926 -68.79199981689453,-20.722999572753906 -51.16400146484375,-38.45500183105469 C-25.569000244140625,-64.1989974975586 16.708999633789062,-66.82599639892578 61.933998107910156,-45.47600173950195 C70.04900360107422,-41.645999908447266 73.52100372314453,-31.96299934387207 69.69000244140625,-23.847999572753906 C65.86199951171875,-15.732999801635742 56.176998138427734,-12.25100040435791 48.0620002746582,-16.090999603271484 C10.102999687194824,-34.00899887084961 -16.18199920654297,-27.554000854492188 -28.118000030517578,-15.545000076293945 C-36.040000915527344,-7.576000213623047 -38.25899887084961,3.015000104904175 -33.90599822998047,12.097000122070312 C-27.527000427246094,25.40999984741211 -5.0320000648498535,37.972999572753906 39.0620002746582,33.303001403808594 C48.01499938964844,32.369998931884766 55.986000061035156,38.82600021362305 56.930999755859375,47.749000549316406 C57.875999450683594,56.672000885009766 51.409000396728516,64.6729965209961 42.48500061035156,65.61799621582031 C34.67499923706055,66.44499969482422 27.41200065612793,66.82599639892578 20.66900062561035,66.82599639892578z"></path></g><g opacity="1" transform="matrix(1,0,0,1,1293.387939453125,1802.8270263671875)"><path fill="rgb(0,0,114)" fill-opacity="1" d=" M-6.322000026702881,64.48999786376953 C-7.616000175476074,64.48999786376953 -8.911999702453613,64.44400024414062 -10.213000297546387,64.35299682617188 C-32.21799850463867,62.83000183105469 -50.323001861572266,48.20600128173828 -56.3390007019043,27.101999282836914 C-64.53500366210938,-1.6480000019073486 -48.45600128173828,-33.92599868774414 -13.331000328063965,-59.24300003051758 C-6.052999973297119,-64.48899841308594 4.099999904632568,-62.84400177001953 9.350000381469727,-55.56100082397461 C14.595999717712402,-48.28300094604492 12.947999954223633,-38.12699890136719 5.668000221252441,-32.88100051879883 C-22.047000885009766,-12.902999877929688 -28.392000198364258,6.6020002365112305 -25.089000701904297,18.194000244140625 C-22.871999740600586,25.974000930786133 -16.150999069213867,31.3700008392334 -7.9670000076293945,31.93600082397461 C6.513000011444092,32.946998596191406 21.163000106811523,20.003000259399414 31.184999465942383,-2.6710000038146973 C34.81100082397461,-10.87600040435791 44.395999908447266,-14.592000007629395 52.61399841308594,-10.96399974822998 C60.821998596191406,-7.339000225067139 64.53500366210938,2.25600004196167 60.90700149536133,10.46399974822998 C45.83399963378906,44.58000183105469 20.913999557495117,64.48799896240234 -6.322000026702881,64.48999786376953z"></path></g><g opacity="1" transform="matrix(1,0,0,1,1823.5419921875,2141.925048828125)"><path fill="rgb(96,83,123)" fill-opacity="1" d=" M-216.8699951171875,36.37300109863281 C-134.33200073242188,69.08300018310547 -70.74500274658203,138.10899353027344 -21.434999465942383,234.49400329589844 C-7.61899995803833,261.4989929199219 21.680999755859375,276.8110046386719 51.83100128173828,273.4750061035156 C203.57699584960938,256.6830139160156 264.26800537109375,67.31999969482422 139.0709991455078,-82.8949966430664 C-24.520999908447266,-276.80999755859375 -252.00399780273438,-176.79100036621094 -262.0459899902344,-35.79199981689453 C-264.2669982910156,-4.603000164031982 -245.93899536132812,24.85300064086914 -216.8699951171875,36.37300109863281z"></path></g><g opacity="1" transform="matrix(1,0,0,1,1269.3409423828125,2351.868896484375)"><path fill="rgb(96,83,123)" fill-opacity="1" d=" M178.42300415039062,-114.73500061035156 C130.197998046875,-40.191001892089844 118.48400115966797,52.92599868774414 134.2760009765625,160.03399658203125 C138.7010040283203,190.04299926757812 123.7300033569336,219.52000427246094 97.24299621582031,234.30299377441406 C-36.07099914550781,308.7090148925781 -195.406005859375,189.73800659179688 -180.6490020751953,-5.251999855041504 C-159.99200439453125,-258.1130065917969 83.3030014038086,-308.7090148925781 173.32200622558594,-199.7209930419922 C193.23399353027344,-175.61300659179688 195.40699768066406,-140.98800659179688 178.42300415039062,-114.73500061035156z"></path></g><g opacity="1" transform="matrix(1,0,0,1,2010.4010009765625,2713.952880859375)"><path fill="rgb(96,83,123)" fill-opacity="1" d=" M407.3949890136719,-88.14600372314453 C473.2409973144531,59.02399826049805 395.5409851074219,143.64700317382812 174.3300018310547,165.78900146484375 C174.3300018310547,165.78900146484375 -87.9749984741211,165.78900146484375 -87.9749984741211,165.78900146484375 C-473.239990234375,152.8509979248047 -331.5820007324219,-165.78799438476562 315.3280029296875,-141.98899841308594 C354.4110107421875,-145.79200744628906 391.3580017089844,-123.98999786376953 407.3949890136719,-88.14600372314453z"></path></g><g opacity="1" transform="matrix(1,0,0,1,2021.56396484375,2690.68408203125)"><path fill="rgb(255,255,255)" fill-opacity="1" d=" M311.4840087890625,-115.84100341796875 C311.4840087890625,-115.84100341796875 311.4840087890625,-115.84100341796875 311.4840087890625,-115.84100341796875 C311.4840087890625,-97.66500091552734 296.5360107421875,-83.09700012207031 278.3630065917969,-83.40299987792969 C-106.6520004272461,-89.89199829101562 -301.0119934082031,27.902000427246094 -299.6809997558594,119.9739990234375 C-362.43499755859375,27.281999588012695 -174.5959930419922,-124.81199645996094 256.614013671875,-119.85399627685547 C256.614013671875,-119.85399627685547 311.4840087890625,-115.84100341796875 311.4840087890625,-115.84100341796875z"></path></g><g opacity="1" transform="matrix(1,0,0,1,3191.68994140625,2691.948974609375)"><path fill="rgb(96,83,123)" fill-opacity="1" d=" M-86.83699798583984,187.79200744628906 C-86.83699798583984,187.79200744628906 -158.0919952392578,187.79200744628906 -158.0919952392578,187.79200744628906 C-158.0919952392578,187.79200744628906 -383.6130065917969,6.138999938964844 -158.0919952392578,-182.9759979248047 C-156.15499877929688,-184.58099365234375 -154.26699829101562,-186.18699645996094 -152.4720001220703,-187.79200744628906 C232.46299743652344,-177.54600524902344 383.6130065917969,187.79200744628906 -86.83699798583984,187.79200744628906z"></path></g><g opacity="1" transform="matrix(1,0,0,1,3201.98193359375,2671.260009765625)"><path fill="rgb(255,255,255)" fill-opacity="1" d=" M-167.76400756835938,-162.10400390625 C-169.55799865722656,-160.4980010986328 -171.447998046875,-158.89300537109375 -173.38400268554688,-157.28799438476562 C-179.56300354003906,-152.10699462890625 -185.34300231933594,-146.93299865722656 -190.85800170898438,-141.76699829101562 C83.78900146484375,-133.5970001220703 238.58099365234375,55.42399978637695 131.85499572753906,162.10000610351562 C284.1419982910156,61.09700012207031 126.52200317382812,-154.27000427246094 -167.76400756835938,-162.10400390625z"></path></g><g opacity="1" transform="matrix(1,0,0,1,2555.049072265625,2691.81005859375)"><path fill="rgb(0,0,114)" fill-opacity="1" d=" M549.8049926757812,204.16400146484375 C549.8049926757812,204.16400146484375 -632.6439819335938,204.16400146484375 -632.6439819335938,204.16400146484375 C-632.823974609375,204.16400146484375 -633.0079956054688,204.16200256347656 -633.18798828125,204.1540069580078 C-747.0869750976562,200.33399963378906 -824.6480102539062,170.3509979248047 -851.583984375,119.7229995727539 C-866.3939819335938,91.89099884033203 -863.9600219726562,59.64699935913086 -844.72900390625,28.927000045776367 C-814.0330200195312,-20.107999801635742 -743.1929931640625,-63.44599914550781 -645.2589721679688,-93.10199737548828 C-532.947021484375,-127.11000061035156 -388.90301513671875,-141.96400451660156 -228.72300720214844,-136.072998046875 C-219.75599670410156,-135.74099731445312 -212.75399780273438,-128.20399475097656 -213.08299255371094,-119.23699951171875 C-213.4149932861328,-110.2699966430664 -220.86900329589844,-103.25499725341797 -229.91900634765625,-103.59700012207031 C-386.56500244140625,-109.35900115966797 -526.9240112304688,-94.98200225830078 -635.8400268554688,-62 C-724.9459838867188,-35.018001556396484 -791.0419921875,4.4079999923706055 -817.1849975585938,46.17100143432617 C-830.3590087890625,67.21299743652344 -832.280029296875,86.82499694824219 -822.8980102539062,104.45899963378906 C-802.2849731445312,143.1999969482422 -731.0689697265625,168.31700134277344 -632.3679809570312,171.66900634765625 C-632.3679809570312,171.66900634765625 549.8049926757812,171.66900634765625 549.8049926757812,171.66900634765625 C685.3909912109375,171.66900634765625 781.8900146484375,139.21800231933594 814.5560302734375,82.63800048828125 C832.2020263671875,52.071998596191406 830.1439819335938,14.835000038146973 808.7550048828125,-22.211000442504883 C765.8040161132812,-96.60299682617188 643.614013671875,-171.66600036621094 467.46099853515625,-171.66400146484375 C458.489013671875,-171.66400146484375 451.2139892578125,-178.93699645996094 451.2139892578125,-187.91099548339844 C451.2139892578125,-196.88299560546875 458.48699951171875,-204.15899658203125 467.46099853515625,-204.15899658203125 C656.5750122070312,-204.16400146484375 789.2750244140625,-120.93900299072266 836.89697265625,-38.45800018310547 C864.333984375,9.064000129699707 866.3939819335938,57.840999603271484 842.697998046875,98.88600158691406 C803.5009765625,166.7760009765625 699.4849853515625,204.16400146484375 549.8049926757812,204.16400146484375z"></path></g><g opacity="0.5" transform="matrix(1,0,0,1,2999.863037109375,2232.2900390625)"><path fill="rgb(66,59,120)" fill-opacity="1" d=" M-57.869998931884766,260.94000244140625 C-82.51799774169922,259.15301513671875 -98.08100128173828,233.33200073242188 -87.76300048828125,210.875 C39.9010009765625,-66.96700286865234 -172.0469970703125,-290.19000244140625 -172.0469970703125,-290.19000244140625 C-172.0469970703125,-290.19000244140625 -163.8300018310547,-290.9930114746094 -163.8300018310547,-290.9930114746094 C2.9019999504089355,-187.9600067138672 110.94100189208984,1.343999981880188 100.78800201416016,276.6820068359375 C125.81400299072266,279.98699951171875 149.61300659179688,284.85101318359375 172.04299926757812,290.989990234375 C103.91200256347656,274.6510009765625 3.578000068664551,265.39599609375 -57.869998931884766,260.94000244140625z"></path></g><g opacity="0.5" transform="matrix(1,0,0,1,3237.324951171875,2710.5048828125)"><path fill="rgb(66,59,120)" fill-opacity="1" d=" M-132.4720001220703,169.23599243164062 C-132.4720001220703,169.23599243164062 -160.52000427246094,169.23599243164062 -160.52000427246094,169.23599243164062 C63.72600173950195,144.0679931640625 61.74300003051758,-129.85400390625 -11.59000015258789,-168.9510040283203 C-11.777999877929688,-169.04600524902344 -11.920000076293945,-169.13999938964844 -12.109000205993652,-169.23500061035156 C221.34500122070312,-74.18099975585938 251.5659942626953,169.23599243164062 -132.4720001220703,169.23599243164062z"></path></g><g opacity="1" transform="matrix(1,0,0,1,2483.93896484375,2819.5849609375)"><path fill="rgb(66,59,120)" fill-opacity="1" d=" M591.6389770507812,60.15599822998047 C591.6389770507812,60.15599822998047 -561.5130004882812,60.15599822998047 -561.5130004882812,60.15599822998047 C-571.9019775390625,59.82500076293945 -581.9119873046875,59.2130012512207 -591.5449829101562,58.457000732421875 C-591.5449829101562,58.457000732421875 -591.6400146484375,58.409000396728516 -591.6400146484375,58.409000396728516 C-591.6400146484375,58.409000396728516 -468.3009948730469,-131.41400146484375 3.8959999084472656,-30.69499969482422 C3.8959999084472656,-30.69499969482422 236.8769989013672,-1.6059999465942383 321.87200927734375,-47.645999908447266 C402.1929931640625,-91.08799743652344 431.8940124511719,51.893001556396484 591.6389770507812,60.15599822998047z"></path></g><g opacity="1" transform="matrix(1,0,0,1,3116.51708984375,2879.48193359375)"><path fill="rgb(121,41,55)" fill-opacity="1" d=" M11.663000106811523,-0.07100000232458115 C4.060999870300293,0.16500000655651093 -3.7309999465942383,0.25999999046325684 -11.663000106811523,0.25999999046325684 C-2.739000082015991,-0.16599999368190765 5.00600004196167,-0.25999999046325684 11.663000106811523,-0.07100000232458115z"></path></g><g opacity="1" transform="matrix(1,0,0,1,3116.49609375,2879.48095703125)"><path fill="rgb(0,0,114)" fill-opacity="1" d=" M-11.640999794006348,2.759000062942505 C-11.640999794006348,2.759000062942505 -11.76099967956543,-2.23799991607666 -11.76099967956543,-2.23799991607666 C-3.052000045776367,-2.6540000438690186 4.860000133514404,-2.759000062942505 11.755000114440918,-2.571000099182129 C11.755000114440918,-2.571000099182129 11.76099967956543,2.428999900817871 11.76099967956543,2.428999900817871 C4.614999771118164,2.6519999504089355 -3.0399999618530273,2.759000062942505 -11.640999794006348,2.759000062942505z"></path></g></g><g transform="matrix(0.27000001072883606,0,0,0.27000001072883606,0,0)" opacity="1" style="display: block;"><g opacity="1" transform="matrix(1,0,0,1,1561.8489990234375,2356.6279296875)"><path fill="rgb(0,0,114)" fill-opacity="1" d=" M-73.64600372314453,6.339000225067139 C-63.027000427246094,39.53200149536133 -15.65999984741211,73.97599792480469 25.01300048828125,60.9640007019043 C65.68599700927734,47.95100021362305 84.26399993896484,-7.590000152587891 73.64399719238281,-40.78300094604492 C63.025001525878906,-73.97599792480469 27.211000442504883,-72.30899810791016 -13.461999893188477,-59.297000885009766 C-54.1349983215332,-46.28499984741211 -84.26499938964844,-26.854000091552734 -73.64600372314453,6.339000225067139z"></path></g><g opacity="1" transform="matrix(1,0,0,1,1582.822021484375,2419.72802734375)"><path fill="rgb(0,0,114)" fill-opacity="1" d=" M12.586999893188477,-29.65999984741211 C12.586999893188477,-29.65999984741211 22.746999740600586,40.573001861572266 22.746999740600586,40.573001861572266 C23.132999420166016,43.236000061035156 21.28700065612793,45.70500183105469 18.625,46.090999603271484 C16.514999389648438,46.39500045776367 14.52400016784668,45.29199981689453 13.597999572753906,43.5 C13.597999572753906,43.5 -18.895000457763672,-19.58799934387207 -18.895000457763672,-19.58799934387207 C-23.131999969482422,-27.81599998474121 -19.898000717163086,-37.91999816894531 -11.670999526977539,-42.159000396728516 C-3.443000078201294,-46.395999908447266 6.6620001792907715,-43.1609992980957 10.899999618530273,-34.93299865722656 C11.763999938964844,-33.255001068115234 12.322999954223633,-31.429000854492188 12.586999893188477,-29.65999984741211z"></path></g></g><g transform="matrix(0.27000001072883606,0,0,0.27000001072883606,0,-10.7642822265625)" opacity="1" style="display: block;"><g opacity="1" transform="matrix(1,0,0,1,1802.56201171875,2194.705078125)"><path fill="rgb(0,0,114)" fill-opacity="1" d=" M-14.53600025177002,61.72200012207031 C-34.013999938964844,61.72200012207031 -54.60900115966797,54.64899826049805 -72.91000366210938,37.20100021362305 C-78.90599822998047,31.485000610351562 -79.13300323486328,21.992000579833984 -73.41799926757812,15.994999885559082 C-67.70500183105469,9.99899959564209 -58.20800018310547,9.769000053405762 -52.21200180053711,15.487000465393066 C-27.676000595092773,38.87799835205078 0.31299999356269836,33.36899948120117 16.819000244140625,21.53700065612793 C32.073001861572266,10.612000465393066 45.49100112915039,-11.623000144958496 33.11800003051758,-38.321998596191406 C29.634000778198242,-45.8390007019043 32.90299987792969,-54.755001068115234 40.417999267578125,-58.23899841308594 C47.946998596191406,-61.722999572753906 56.85100173950195,-58.452999114990234 60.334999084472656,-50.9379997253418 C79.13300323486328,-10.380999565124512 60.79800033569336,26.93400001525879 34.29199981689453,45.92399978637695 C20.84000015258789,55.5620002746582 3.640000104904175,61.72200012207031 -14.53600025177002,61.72200012207031z"></path></g><g opacity="1" transform="matrix(1,0,0,1,1292.7459716796875,2373.31103515625)"><path fill="rgb(0,0,114)" fill-opacity="1" d=" M-9.652000427246094,53.37300109863281 C-36.99599838256836,53.37300109863281 -62.5989990234375,41.10200119018555 -78.8290023803711,18.684999465942383 C-83.68800354003906,11.973999977111816 -82.18599700927734,2.5969998836517334 -75.4749984741211,-2.26200008392334 C-68.76100158691406,-7.114999771118164 -59.38600158691406,-5.61899995803833 -54.527000427246094,1.093000054359436 C-37.47200012207031,24.656999588012695 -8.157999992370605,27.1299991607666 13.32699966430664,19.12700080871582 C32.97700119018555,11.805000305175781 53.055999755859375,-6.626999855041504 50.470001220703125,-36.40999984741211 C49.755001068115234,-44.6619987487793 55.862998962402344,-51.935001373291016 64.11799621582031,-52.650001525878906 C72.36699676513672,-53.37300109863281 79.63999938964844,-47.25699996948242 80.35800170898438,-39.00299835205078 C83.68800354003906,-0.652999997138977 61.486000061035156,33.20000076293945 23.799999237060547,47.2400016784668 C12.70199966430664,51.37300109863281 1.3830000162124634,53.369998931884766 -9.652000427246094,53.37300109863281z"></path></g></g><g transform="matrix(0.26011449098587036,0,0,0.27000001072883606,16.25628662109375,0)" opacity="1" style="display: block;"><g opacity="1" transform="matrix(1,0,0,1,1644.91796875,2578.596923828125)"><path fill="rgb(0,0,114)" fill-opacity="1" d=" M105.44200134277344,3.4700000286102295 C98.40599822998047,31.565000534057617 68.70500183105469,55.930999755859375 29.135000228881836,70.9469985961914 C-3.5880000591278076,83.36599731445312 -35.55699920654297,86.43499755859375 -59.119998931884766,77.84100341796875 C-74.51300048828125,72.22200012207031 -86.31800079345703,61.64400100708008 -92.45700073242188,45.448001861572266 C-107.99199676513672,4.414000034332275 -76.77999877929688,-45.45000076293945 -22.71299934387207,-65.94300079345703 C31.35300064086914,-86.43599700927734 87.78099822998047,-69.76799774169922 103.31700134277344,-28.687000274658203 C107.4729995727539,-17.684999465942383 107.99199676513672,-6.870999813079834 105.44200134277344,3.4700000286102295z"></path></g><g opacity="1" transform="matrix(1,0,0,1,1668.0789794921875,2616.5849609375)"><path fill="rgb(255,43,74)" fill-opacity="1" d=" M82.28099822998047,-34.518001556396484 C75.24500274658203,-6.422999858856201 45.54399871826172,17.94300079345703 5.973999977111816,32.95899963378906 C-26.749000549316406,45.37799835205078 -58.71799850463867,48.446998596191406 -82.28099822998047,39.85300064086914 C-76.0009994506836,8.876999855041504 -48.895999908447266,-21.107999801635742 -9.987000465393066,-35.84000015258789 C23.20800018310547,-48.448001861572266 57.301998138427734,-46.98400115966797 82.28099822998047,-34.518001556396484z"></path></g><g opacity="1" transform="matrix(1,0,0,1,1650.3590087890625,2581.076904296875)"><path fill="rgb(0,0,114)" fill-opacity="1" d=" M-34.13800048828125,96.48799896240234 C-41.15399932861328,96.48799896240234 -47.904998779296875,95.92900085449219 -54.33100128173828,94.80400085449219 C-82.85099792480469,89.81300354003906 -103.71299743652344,73.45600128173828 -113.072998046875,48.74599838256836 C-122.43800354003906,24.030000686645508 -118.8239974975586,-3.5999999046325684 -102.89700317382812,-29.051000595092773 C-87.85700225830078,-53.08399963378906 -63.36000061035156,-72.46399688720703 -33.91699981689453,-83.61900329589844 C-4.4710001945495605,-94.77100372314453 26.714000701904297,-96.48799896240234 53.90700149536133,-88.45600128173828 C82.697998046875,-79.9469985961914 103.71299743652344,-61.64899826049805 113.0780029296875,-36.93199920654297 C113.0780029296875,-36.93199920654297 113.0739974975586,-36.93199920654297 113.0739974975586,-36.93199920654297 C122.43699645996094,-12.222999572753906 117.64900207519531,13.85099983215332 99.59500122070312,36.487998962402344 C84.1969985961914,55.79499816894531 59.944000244140625,72.10600280761719 29.45599937438965,83.65599822998047 C7.021999835968018,92.15499877929688 -14.592000007629395,96.48600006103516 -34.13800048828125,96.48799896240234z M18.399999618530273,-60.9630012512207 C5.063000202178955,-60.9630012512207 -8.842000007629395,-58.36800003051758 -22.40399932861328,-53.23099899291992 C-45.250999450683594,-44.57600021362305 -64.05400085449219,-29.867000579833984 -75.3499984741211,-11.812999725341797 C-85.76000213623047,4.822999954223633 -88.36599731445312,22.239999771118164 -82.68699645996094,37.233001708984375 C-77.40399932861328,51.17599868774414 -65.97699737548828,59.777000427246094 -48.729000091552734,62.79399871826172 C-30.40399932861328,66 -6.73199987411499,62.61899948120117 17.94300079345703,53.268001556396484 C42.62099838256836,43.91699981689453 62.59700012207031,30.76300048828125 74.19300079345703,16.226999282836914 C85.11100006103516,2.5360000133514404 87.96900177001953,-11.47599983215332 82.68900299072266,-25.41900062561035 C82.68900299072266,-25.41900062561035 82.68699645996094,-25.41900062561035 82.68699645996094,-25.41900062561035 C77.00800323486328,-40.4109992980957 63.51599884033203,-51.731998443603516 44.69499969482422,-57.29399871826172 C36.39400100708008,-59.74700164794922 27.5310001373291,-60.9630012512207 18.399999618530273,-60.9630012512207z"></path></g></g><g transform="matrix(0.9848077297210693,-0.1736481785774231,0.1736481785774231,0.9848077297210693,257.2769775390625,379.6583251953125)" opacity="0" fill="rgb(51,121,208)" font-size="68" font-family="Helvetica Rounded LT Std" font-style="normal" font-weight="700" aria-label="Z" style="display: block;"><text stroke-linecap="butt" stroke-linejoin="round" stroke-miterlimit="4" xml:space="preserve" transform="matrix(1,0,0,1,123.10690307617188,16.533336639404297)" opacity="1" style="display: inherit;">Z</text></g><g style="display: block;" transform="matrix(0.7264041304588318,0.14119866490364075,-0.14119866490364075,0.7264041304588318,343.4893493652344,257.3077087402344)" opacity="0.5288000000000806" fill="rgb(51,121,208)" font-size="68" font-family="Helvetica Rounded LT Std" font-style="normal" font-weight="700" aria-label="Z"><text stroke-linecap="butt" stroke-linejoin="round" stroke-miterlimit="4" xml:space="preserve" transform="matrix(1,0,0,1,123.10690307617188,16.533336639404297)" opacity="1" style="display: inherit;">Z</text></g><g style="display: block;" transform="matrix(0.48099732398986816,0.0934964120388031,-0.0934964120388031,0.48099732398986816,345.83599853515625,170.24264526367188)" opacity="1" fill="rgb(51,121,208)" font-size="68" font-family="Helvetica Rounded LT Std" font-style="normal" font-weight="700" aria-label="Z"><text stroke-linecap="butt" stroke-linejoin="round" stroke-miterlimit="4" xml:space="preserve" transform="matrix(1,0,0,1,123.10690307617188,16.533336639404297)" opacity="1" style="display: inherit;">Z</text></g></g></svg>